# xmcd CD database file
#
# Track frame offsets:
#	150
#	13674
#	32990
#	54349
#	77363
#	94955
#	116975
#	134260
#	152615
#	174340
#
# Disc length: 2605 seconds
#
# Revision: 0
# Processed by: cddbd v1.5.1PL2 Copyright (c) Steve Scherf et al.
# Submitted via: CDex 1.50
#
DISCID=770a2b0a
DTITLE=Kelley Polar - Love Songs Of The Hanging Gardens
DYEAR=2005
DGENRE=House
TTITLE0=Cosmological Constrancy
TTITLE1=Here In The Night
TTITLE2=Tyurangalila
TTITLE3=My Beauty in the Moon
TTITLE4=Vocalise (From Here to Polarity)
TTITLE5=Ashamed of Myself
TTITLE6=The Rooms in my House Have Many Parties
TTITLE7=Matter Into Entergy
TTITLE8=Black Hole
TTITLE9=In Time
EXTD=YEAR: 2005
EXTT0=
EXTT1=
EXTT2=
EXTT3=
EXTT4=
EXTT5=
EXTT6=
EXTT7=
EXTT8=
EXTT9=
PLAYORDER=
